####
#
# OBJ File Generated by Meshlab
#
####
# Object cavity.obj
#
# Vertices: 8
# Faces: 12
#
####
vn -1.850261 -3.618289 -0.578926
v -9.000000 21.640001 -64.767998 0.752941 0.752941 0.752941
vn -1.850261 -3.618289 0.578926
v -9.000000 21.640001 -59.136002 0.752941 0.752941 0.752941
vn -1.850261 3.618289 -0.578926
v -9.000000 56.840004 -64.767998 0.752941 0.752941 0.752941
vn -1.850261 3.618289 0.578926
v -9.000000 56.840004 -59.136002 0.752941 0.752941 0.752941
vn 1.850261 -3.618289 -0.578926
v 9.000000 21.640001 -64.767998 0.752941 0.752941 0.752941
vn 1.850261 -3.618289 0.578926
v 9.000000 21.640001 -59.136002 0.752941 0.752941 0.752941
vn 1.850261 3.618289 -0.578926
v 9.000000 56.840004 -64.767998 0.752941 0.752941 0.752941
vn 1.850261 3.618289 0.578926
v 9.000000 56.840004 -59.136002 0.752941 0.752941 0.752941
# 8 vertices, 0 vertices normals

f 1//1 7//7 5//5
f 1//1 3//3 7//7
f 1//1 4//4 3//3
f 1//1 2//2 4//4
f 3//3 8//8 7//7
f 3//3 4//4 8//8
f 5//5 7//7 8//8
f 5//5 8//8 6//6
f 1//1 5//5 6//6
f 1//1 6//6 2//2
f 2//2 6//6 8//8
f 2//2 8//8 4//4
# 12 faces, 0 coords texture

# End of File
