####
#
# OBJ File Generated by Meshlab
#
####
# Object spca2.obj
#
# Vertices: 142
# Faces: 280
#
####
vn -2.374705 0.000000 -1.098764
v -40.000000 0.000004 -49.990002 0.752941 0.752941 0.752941
vn -2.293790 0.614619 -1.098764
v -38.637032 10.352767 -49.990002 0.752941 0.752941 0.752941
vn -2.293790 -0.614619 -1.098764
v -38.637032 -10.352757 -49.990002 0.752941 0.752941 0.752941
vn -2.056556 1.187353 -1.098764
v -34.641018 20.000004 -49.990002 0.752941 0.752941 0.752941
vn -1.265414 -0.580288 0.515919
v -34.641018 -19.999996 -49.990002 0.752941 0.752941 0.752941
vn -0.791142 -0.607064 -1.614684
v -34.641018 -19.999996 -49.990002 0.752941 0.752941 0.752941
vn -1.273384 1.794872 -1.031794
v -30.804382 25.000004 -49.989998 0.752941 0.752941 0.752941
vn -1.273384 -1.794872 -1.031794
v -30.804382 -24.999996 -49.990005 0.752941 0.752941 0.752941
vn 0.000000 3.141593 -3.141593
v -28.716654 25.000004 -49.989998 0.752941 0.752941 0.752941
vn 0.000000 3.141593 -3.141593
v -28.284271 25.000004 -49.989998 0.752941 0.752941 0.752941
vn 0.000000 0.000001 -6.283185
v -28.284271 -16.329927 -49.990002 0.752941 0.752941 0.752941
vn 0.000000 -3.141593 -3.141593
v -28.284271 -24.999996 -49.990005 0.752941 0.752941 0.752941
vn 0.000000 -3.141593 -3.141593
v -27.851889 -24.999996 -49.990005 0.752941 0.752941 0.752941
vn 0.000000 0.000001 -6.283185
v -26.580986 -15.346536 -49.990002 0.752941 0.752941 0.752941
vn -1.961377 4.667380 1.919213
v -25.000000 25.000004 -43.797115 0.752941 0.752941 0.752941
vn -3.114716 -0.000000 2.879793
v -25.000000 0.000000 0.010000 0.752941 0.752941 0.752941
vn -5.738909 -0.000000 1.968145
v -25.000000 0.000003 -29.990000 0.752941 0.752941 0.752941
vn -1.961377 -4.667382 1.919213
v -25.000000 -24.999996 -43.797123 0.752941 0.752941 0.752941
vn -3.008584 0.806148 2.879793
v -24.148146 6.470476 0.010001 0.752941 0.752941 0.752941
vn -5.543360 1.485339 1.968145
v -24.148146 6.470479 -29.990000 0.752941 0.752941 0.752941
vn -3.008584 -0.806148 2.879793
v -24.148146 -6.470476 0.009999 0.752941 0.752941 0.752941
vn -5.543361 -1.485339 1.968145
v -24.148146 -6.470473 -29.990000 0.752941 0.752941 0.752941
vn -2.697423 1.557358 2.879792
v -21.650635 12.500000 0.010001 0.752941 0.752941 0.752941
vn -4.970041 2.869454 1.968145
v -21.650635 12.500003 -29.989998 0.752941 0.752941 0.752941
vn -2.697423 -1.557358 2.879793
v -21.650635 -12.500000 0.009999 0.752941 0.752941 0.752941
vn -4.970041 -2.869455 1.968145
v -21.650635 -12.499997 -29.990002 0.752941 0.752941 0.752941
vn 0.000000 3.141593 -3.141592
v -21.269264 25.000004 -49.989998 0.752941 0.752941 0.752941
vn -1.534698 -5.141649 1.874587
v -20.469580 -24.999996 -40.088131 0.752941 0.752941 0.752941
vn 0.000000 3.141593 -3.141593
v -20.000000 25.000004 -49.989998 0.752941 0.752941 0.752941
vn 0.000000 0.000001 -6.283185
v -20.000000 -11.547001 -49.990002 0.752941 0.752941 0.752941
vn 0.000000 -3.141592 -3.141593
v -20.000000 -24.999996 -49.990005 0.752941 0.752941 0.752941
vn 0.000000 -3.141592 -3.141593
v -18.730736 -24.999996 -49.990005 0.752941 0.752941 0.752941
vn -1.534698 5.141649 1.874588
v -18.680117 25.000004 -38.623116 0.752941 0.752941 0.752941
vn -2.202437 2.202437 2.879795
v -17.677670 17.677670 0.010002 0.752941 0.752941 0.752941
vn -4.058022 4.058022 1.968146
v -17.677670 17.677671 -29.989998 0.752941 0.752941 0.752941
vn 0.000000 -0.000001 6.283185
v -17.677670 -10.206207 0.009999 0.752941 0.752941 0.752941
vn -2.202437 -2.202437 2.879793
v -17.677670 -17.677670 0.009998 0.752941 0.752941 0.752941
vn -4.058022 -4.058022 1.968145
v -17.677670 -17.677668 -29.990002 0.752941 0.752941 0.752941
vn 0.000000 0.000001 -6.283185
v -16.709507 -9.647234 -49.990002 0.752941 0.752941 0.752941
vn 0.000000 -0.000001 6.283186
v -16.613117 -9.591587 0.009999 0.752941 0.752941 0.752941
vn -1.445475 5.116781 1.961852
v -14.433757 25.000004 -35.146683 0.752941 0.752941 0.752941
vn -1.445475 -5.116780 1.961851
v -14.433757 -24.999996 -35.146690 0.752941 0.752941 0.752941
vn -1.557358 2.697423 2.879793
v -12.500000 21.650635 0.010002 0.752941 0.752941 0.752941
vn -2.869454 4.970041 1.968145
v -12.500000 21.650637 -29.989998 0.752941 0.752941 0.752941
vn 0.000000 -0.000001 6.283185
v -12.500000 -7.216878 0.009999 0.752941 0.752941 0.752941
vn -1.557358 -2.697423 2.879793
v -12.500000 -21.650635 0.009998 0.752941 0.752941 0.752941
vn -2.869454 -4.970041 1.968145
v -12.500000 -21.650633 -29.990002 0.752941 0.752941 0.752941
vn 0.000000 3.141593 -3.141593
v -12.148111 25.000004 -49.989998 0.752941 0.752941 0.752941
vn -0.964752 5.470708 1.874588
v -12.076610 25.000004 -33.933582 0.752941 0.752941 0.752941
vn 0.000000 -0.000001 6.283185
v -10.443441 -6.029524 0.009999 0.752941 0.752941 0.752941
vn 0.000000 3.141595 -3.141593
v -10.352762 25.000004 -49.989998 0.752941 0.752941 0.752941
vn 0.000000 0.000001 -6.283185
v -10.352762 -5.977166 -49.990002 0.752941 0.752941 0.752941
vn 0.000000 -3.141593 -3.141593
v -10.352762 -24.999996 -49.990005 0.752941 0.752941 0.752941
vn 0.000000 -3.141592 -3.141593
v -8.557413 -24.999996 -49.990005 0.752941 0.752941 0.752941
vn -0.964752 -5.470708 1.874587
v -7.568858 -24.999998 -31.613684 0.752941 0.752941 0.752941
vn -0.778217 5.410957 2.013534
v -6.698730 25.000002 -31.165871 0.752941 0.752941 0.752941
vn -0.778217 -5.410957 2.013533
v -6.698730 -24.999998 -31.165874 0.752941 0.752941 0.752941
vn -0.806148 3.008584 2.879793
v -6.470476 24.148146 0.010002 0.752941 0.752941 0.752941
vn -1.485339 5.543360 1.968145
v -6.470476 24.148148 -29.989998 0.752941 0.752941 0.752941
vn 0.000000 -0.000001 6.283185
v -6.470476 -3.735731 0.010000 0.752941 0.752941 0.752941
vn -0.806148 -3.008585 2.879793
v -6.470476 -24.148146 0.009998 0.752941 0.752941 0.752941
vn -1.485339 -5.543360 1.968144
v -6.470476 -24.148144 -29.990002 0.752941 0.752941 0.752941
vn -0.329058 5.641043 1.874587
v -6.122763 25.000002 -31.064768 0.752941 0.752941 0.752941
vn 0.000000 0.000001 -6.283185
v -5.699302 -3.290489 -49.990002 0.752941 0.752941 0.752941
vn 0.000000 -0.000001 6.283185
v -3.562063 -2.056558 0.010000 0.752941 0.752941 0.752941
vn 0.000000 3.141593 -3.141593
v -1.974788 25.000004 -49.989998 0.752941 0.752941 0.752941
vn -0.000000 3.114716 2.879794
v 0.000000 25.000000 0.010002 0.752941 0.752941 0.752941
vn 0.000000 6.229432 0.000001
v 0.000000 25.000002 -24.989998 0.752941 0.752941 0.752941
vn 0.000000 6.254313 0.259154
v 0.000000 25.000002 -29.989998 0.752941 0.752941 0.752941
vn 0.000000 3.141593 -3.141592
v 0.000000 25.000004 -49.989998 0.752941 0.752941 0.752941
vn 0.000000 -0.000001 6.283185
v 0.000000 0.000000 0.010000 0.752941 0.752941 0.752941
vn 0.000000 0.000001 -6.283186
v 0.000000 0.000004 -49.990002 0.752941 0.752941 0.752941
vn 0.000000 -3.114716 2.879793
v 0.000000 -25.000000 0.009998 0.752941 0.752941 0.752941
vn -0.000000 -6.229432 -0.000001
v 0.000000 -24.999998 -24.990002 0.752941 0.752941 0.752941
vn -0.000000 -6.254313 0.259152
v 0.000000 -24.999998 -29.990002 0.752941 0.752941 0.752941
vn 0.000000 -3.141592 -3.141593
v 0.000000 -24.999996 -49.990005 0.752941 0.752941 0.752941
vn 0.000000 -3.141592 -3.141593
v 1.974788 -24.999996 -49.990005 0.752941 0.752941 0.752941
vn 0.000000 -0.000001 6.283186
v 3.562063 2.056558 0.010000 0.752941 0.752941 0.752941
vn 0.000000 0.000001 -6.283185
v 5.699302 3.290498 -49.990002 0.752941 0.752941 0.752941
vn 0.329058 -5.641043 1.874586
v 6.122763 -24.999998 -31.064772 0.752941 0.752941 0.752941
vn 0.806148 3.008584 2.879794
v 6.470476 24.148146 0.010002 0.752941 0.752941 0.752941
vn 1.485339 5.543361 1.968145
v 6.470476 24.148148 -29.989998 0.752941 0.752941 0.752941
vn 0.000000 -0.000001 6.283185
v 6.470476 3.735731 0.010000 0.752941 0.752941 0.752941
vn 0.806148 -3.008585 2.879793
v 6.470476 -24.148146 0.009998 0.752941 0.752941 0.752941
vn 1.485339 -5.543361 1.968144
v 6.470476 -24.148144 -29.990002 0.752941 0.752941 0.752941
vn 0.778217 5.410957 2.013534
v 6.698730 25.000002 -31.165871 0.752941 0.752941 0.752941
vn 0.778217 -5.410957 2.013533
v 6.698730 -24.999998 -31.165874 0.752941 0.752941 0.752941
vn 0.964751 5.470709 1.874588
v 7.568858 25.000002 -31.613680 0.752941 0.752941 0.752941
vn 0.000000 3.141593 -3.141592
v 8.557413 25.000004 -49.989998 0.752941 0.752941 0.752941
vn 0.000000 3.141593 -3.141592
v 10.352762 25.000004 -49.989998 0.752941 0.752941 0.752941
vn 0.000000 0.000001 -6.283186
v 10.352762 5.977174 -49.990002 0.752941 0.752941 0.752941
vn 0.000000 -3.141595 -3.141593
v 10.352762 -24.999996 -49.990005 0.752941 0.752941 0.752941
vn 0.000000 -0.000001 6.283185
v 10.443441 6.029524 0.010001 0.752941 0.752941 0.752941
vn 0.964752 -5.470708 1.874587
v 12.076610 -24.999996 -33.933590 0.752941 0.752941 0.752941
vn 0.000000 -3.141593 -3.141593
v 12.148111 -24.999996 -49.990005 0.752941 0.752941 0.752941
vn 1.557358 2.697423 2.879794
v 12.500000 21.650635 0.010002 0.752941 0.752941 0.752941
vn 2.869454 4.970041 1.968145
v 12.500000 21.650637 -29.989998 0.752941 0.752941 0.752941
vn 0.000000 -0.000001 6.283185
v 12.500000 7.216878 0.010001 0.752941 0.752941 0.752941
vn 1.557358 -2.697423 2.879793
v 12.500000 -21.650635 0.009998 0.752941 0.752941 0.752941
vn 2.869454 -4.970041 1.968144
v 12.500000 -21.650633 -29.990002 0.752941 0.752941 0.752941
vn 1.445475 5.116780 1.961852
v 14.433757 25.000004 -35.146683 0.752941 0.752941 0.752941
vn 1.445475 -5.116781 1.961851
v 14.433757 -24.999996 -35.146690 0.752941 0.752941 0.752941
vn 0.000000 -0.000001 6.283186
v 16.613117 9.591587 0.010001 0.752941 0.752941 0.752941
vn 0.000000 0.000001 -6.283185
v 16.709507 9.647243 -49.990002 0.752941 0.752941 0.752941
vn 2.202437 2.202437 2.879794
v 17.677670 17.677670 0.010002 0.752941 0.752941 0.752941
vn 4.058022 4.058021 1.968146
v 17.677670 17.677671 -29.989998 0.752941 0.752941 0.752941
vn 0.000000 -0.000001 6.283185
v 17.677670 10.206207 0.010001 0.752941 0.752941 0.752941
vn 2.202437 -2.202437 2.879794
v 17.677670 -17.677670 0.009998 0.752941 0.752941 0.752941
vn 4.058022 -4.058022 1.968145
v 17.677670 -17.677668 -29.990002 0.752941 0.752941 0.752941
vn 1.534698 -5.141650 1.874587
v 18.680117 -24.999996 -38.623123 0.752941 0.752941 0.752941
vn 0.000000 3.141593 -3.141593
v 18.730736 25.000004 -49.989998 0.752941 0.752941 0.752941
vn 0.000000 3.141593 -3.141593
v 20.000000 25.000004 -49.989998 0.752941 0.752941 0.752941
vn 0.000000 0.000001 -6.283186
v 20.000000 11.547010 -49.990002 0.752941 0.752941 0.752941
vn 0.000000 -3.141592 -3.141594
v 20.000000 -24.999996 -49.990005 0.752941 0.752941 0.752941
vn 1.534698 5.141649 1.874588
v 20.469580 25.000004 -40.088123 0.752941 0.752941 0.752941
vn 0.000000 -3.141592 -3.141593
v 21.269264 -24.999996 -49.990005 0.752941 0.752941 0.752941
vn 2.697423 1.557358 2.879793
v 21.650635 12.500000 0.010001 0.752941 0.752941 0.752941
vn 4.970041 2.869454 1.968145
v 21.650635 12.500003 -29.989998 0.752941 0.752941 0.752941
vn 2.697423 -1.557358 2.879792
v 21.650635 -12.500000 0.009999 0.752941 0.752941 0.752941
vn 4.970041 -2.869455 1.968145
v 21.650635 -12.499997 -29.990002 0.752941 0.752941 0.752941
vn 3.008584 0.806148 2.879792
v 24.148146 6.470476 0.010001 0.752941 0.752941 0.752941
vn 5.543361 1.485339 1.968145
v 24.148146 6.470479 -29.990000 0.752941 0.752941 0.752941
vn 3.008584 -0.806148 2.879793
v 24.148146 -6.470476 0.009999 0.752941 0.752941 0.752941
vn 5.543361 -1.485339 1.968145
v 24.148146 -6.470473 -29.990000 0.752941 0.752941 0.752941
vn 1.961377 4.667382 1.919213
v 25.000000 25.000004 -43.797115 0.752941 0.752941 0.752941
vn 3.114716 -0.000000 2.879793
v 25.000000 0.000000 0.010000 0.752941 0.752941 0.752941
vn 5.738909 -0.000000 1.968145
v 25.000000 0.000003 -29.990000 0.752941 0.752941 0.752941
vn 1.961377 -4.667380 1.919212
v 25.000000 -24.999996 -43.797123 0.752941 0.752941 0.752941
vn 0.000000 0.000001 -6.283185
v 26.580986 15.346545 -49.990002 0.752941 0.752941 0.752941
vn 0.000000 3.141593 -3.141593
v 27.851889 25.000004 -49.989998 0.752941 0.752941 0.752941
vn 0.000000 3.141593 -3.141593
v 28.284271 25.000004 -49.989998 0.752941 0.752941 0.752941
vn 0.000000 0.000001 -6.283185
v 28.284271 16.329935 -49.990002 0.752941 0.752941 0.752941
vn 0.000000 -3.141593 -3.141594
v 28.284271 -24.999996 -49.990005 0.752941 0.752941 0.752941
vn 0.000000 -3.141592 -3.141593
v 28.716654 -24.999996 -49.990005 0.752941 0.752941 0.752941
vn 1.273384 1.794872 -1.031794
v 30.804382 25.000004 -49.989998 0.752941 0.752941 0.752941
vn 1.273384 -1.794871 -1.031794
v 30.804382 -24.999996 -49.990005 0.752941 0.752941 0.752941
vn 0.791142 0.607065 -1.614684
v 34.641018 20.000004 -49.990002 0.752941 0.752941 0.752941
vn 1.265414 0.580288 0.515919
v 34.641018 20.000004 -49.990002 0.752941 0.752941 0.752941
vn 2.056556 -1.187353 -1.098764
v 34.641018 -19.999996 -49.990002 0.752941 0.752941 0.752941
vn 2.293790 0.614619 -1.098764
v 38.637032 10.352767 -49.990002 0.752941 0.752941 0.752941
vn 2.293789 -0.614619 -1.098764
v 38.637032 -10.352757 -49.990002 0.752941 0.752941 0.752941
vn 2.374705 0.000000 -1.098764
v 40.000000 0.000004 -49.990002 0.752941 0.752941 0.752941
# 142 vertices, 0 vertices normals

f 2//2 3//3 1//1
f 1//1 20//20 2//2
f 22//22 1//1 3//3
f 20//20 1//1 17//17
f 1//1 22//22 17//17
f 3//3 2//2 4//4
f 2//2 24//24 4//4
f 24//24 2//2 20//20
f 5//5 3//3 4//4
f 26//26 3//3 5//5
f 3//3 26//26 22//22
f 7//7 5//5 4//4
f 4//4 35//35 7//7
f 35//35 4//4 24//24
f 5//5 9//9 6//6
f 38//38 5//5 6//6
f 9//9 5//5 7//7
f 5//5 38//38 26//26
f 6//6 11//11 8//8
f 38//38 6//6 8//8
f 9//9 11//11 6//6
f 15//15 9//9 7//7
f 7//7 35//35 15//15
f 8//8 11//11 12//12
f 12//12 18//18 8//8
f 38//38 8//8 18//18
f 9//9 10//10 11//11
f 15//15 10//10 9//9
f 10//10 14//14 11//11
f 10//10 27//27 14//14
f 15//15 27//27 10//10
f 12//12 11//11 13//13
f 11//11 14//14 13//13
f 12//12 13//13 18//18
f 31//31 13//13 14//14
f 18//18 13//13 31//31
f 27//27 30//30 14//14
f 31//31 14//14 30//30
f 27//27 15//15 33//33
f 35//35 33//33 15//15
f 19//19 17//17 16//16
f 22//22 16//16 17//17
f 21//21 19//19 16//16
f 16//16 22//22 21//21
f 17//17 19//19 20//20
f 18//18 31//31 28//28
f 18//18 28//28 38//38
f 23//23 20//20 19//19
f 19//19 21//21 23//23
f 20//20 23//23 24//24
f 26//26 21//21 22//22
f 23//23 21//21 25//25
f 21//21 26//26 25//25
f 34//34 24//24 23//23
f 34//34 23//23 25//25
f 24//24 34//34 35//35
f 38//38 25//25 26//26
f 25//25 36//36 34//34
f 36//36 25//25 37//37
f 25//25 38//38 37//37
f 27//27 29//29 30//30
f 33//33 29//29 27//27
f 31//31 32//32 28//28
f 28//28 32//32 42//42
f 28//28 47//47 38//38
f 47//47 28//28 42//42
f 29//29 39//39 30//30
f 29//29 33//33 41//41
f 29//29 48//48 39//39
f 41//41 48//48 29//29
f 32//32 31//31 30//30
f 32//32 30//30 39//39
f 53//53 32//32 39//39
f 42//42 32//32 53//53
f 33//33 35//35 44//44
f 41//41 33//33 44//44
f 34//34 44//44 35//35
f 36//36 40//40 34//34
f 43//43 34//34 40//40
f 44//44 34//34 43//43
f 40//40 36//36 37//37
f 38//38 46//46 37//37
f 40//40 37//37 46//46
f 46//46 38//38 47//47
f 48//48 52//52 39//39
f 52//52 53//53 39//39
f 40//40 45//45 43//43
f 45//45 40//40 46//46
f 44//44 49//49 41//41
f 48//48 41//41 49//49
f 42//42 55//55 47//47
f 42//42 53//53 55//55
f 43//43 59//59 44//44
f 45//45 50//50 43//43
f 43//43 50//50 58//58
f 59//59 43//43 58//58
f 49//49 44//44 59//59
f 45//45 46//46 50//50
f 47//47 61//61 46//46
f 50//50 46//46 61//61
f 55//55 62//62 47//47
f 61//61 47//47 62//62
f 49//49 51//51 48//48
f 48//48 51//51 52//52
f 51//51 49//49 56//56
f 56//56 49//49 59//59
f 50//50 60//60 58//58
f 60//60 50//50 61//61
f 51//51 64//64 52//52
f 51//51 56//56 63//63
f 63//63 66//66 51//51
f 51//51 66//66 64//64
f 54//54 53//53 52//52
f 54//54 52//52 64//64
f 53//53 54//54 55//55
f 54//54 57//57 55//55
f 76//76 57//57 54//54
f 76//76 54//54 64//64
f 62//62 55//55 57//57
f 59//59 63//63 56//56
f 57//57 75//75 62//62
f 75//75 57//57 76//76
f 58//58 69//69 59//59
f 60//60 65//65 58//58
f 58//58 65//65 67//67
f 68//68 58//58 67//67
f 69//69 58//58 68//68
f 63//63 59//59 69//69
f 65//65 60//60 61//61
f 62//62 73//73 61//61
f 73//73 65//65 61//61
f 73//73 62//62 74//74
f 74//74 62//62 75//75
f 63//63 69//69 66//66
f 66//66 72//72 64//64
f 76//76 64//64 72//72
f 65//65 71//71 67//67
f 73//73 71//71 65//65
f 69//69 70//70 66//66
f 66//66 70//70 72//72
f 67//67 82//82 68//68
f 71//71 78//78 67//67
f 78//78 81//81 67//67
f 82//82 67//67 81//81
f 68//68 82//82 69//69
f 69//69 86//86 70//70
f 86//86 69//69 82//82
f 70//70 79//79 72//72
f 70//70 89//89 79//79
f 86//86 89//89 70//70
f 73//73 78//78 71//71
f 77//77 76//76 72//72
f 77//77 72//72 79//79
f 74//74 84//84 73//73
f 73//73 84//84 78//78
f 75//75 84//84 74//74
f 76//76 77//77 75//75
f 75//75 77//77 80//80
f 80//80 85//85 75//75
f 84//84 75//75 85//85
f 92//92 77//77 79//79
f 92//92 80//80 77//77
f 78//78 83//83 81//81
f 78//78 84//84 83//83
f 89//89 91//91 79//79
f 91//91 92//92 79//79
f 85//85 80//80 87//87
f 87//87 80//80 92//92
f 81//81 97//97 82//82
f 83//83 93//93 81//81
f 93//93 96//96 81//81
f 97//97 81//81 96//96
f 82//82 88//88 86//86
f 88//88 82//82 97//97
f 83//83 84//84 93//93
f 85//85 99//99 84//84
f 93//93 84//84 99//99
f 87//87 94//94 85//85
f 94//94 100//100 85//85
f 99//99 85//85 100//100
f 86//86 88//88 89//89
f 92//92 94//94 87//87
f 89//89 88//88 90//90
f 90//90 88//88 101//101
f 101//101 88//88 97//97
f 89//89 90//90 91//91
f 90//90 104//104 91//91
f 101//101 111//111 90//90
f 90//90 111//111 104//104
f 95//95 92//92 91//91
f 95//95 91//91 104//104
f 92//92 95//95 94//94
f 93//93 98//98 96//96
f 98//98 93//93 99//99
f 94//94 95//95 102//102
f 100//100 94//94 102//102
f 95//95 114//114 102//102
f 114//114 95//95 104//104
f 96//96 106//106 97//97
f 98//98 103//103 96//96
f 103//103 105//105 96//96
f 106//106 96//96 105//105
f 97//97 115//115 101//101
f 115//115 97//97 106//106
f 98//98 99//99 103//103
f 100//100 108//108 99//99
f 99//99 108//108 103//103
f 102//102 110//110 100//100
f 108//108 100//100 109//109
f 110//110 109//109 100//100
f 101//101 115//115 111//111
f 102//102 114//114 110//110
f 103//103 107//107 105//105
f 108//108 107//107 103//103
f 111//111 113//113 104//104
f 114//114 104//104 113//113
f 117//117 106//106 105//105
f 107//107 117//117 105//105
f 125//125 115//115 106//106
f 106//106 117//117 118//118
f 138//138 106//106 118//118
f 106//106 135//135 125//125
f 106//106 137//137 135//135
f 106//106 138//138 137//137
f 117//117 107//107 108//108
f 120//120 108//108 109//109
f 117//117 108//108 119//119
f 108//108 120//120 119//119
f 109//109 110//110 128//128
f 109//109 139//139 120//120
f 136//136 109//109 128//128
f 139//139 109//109 136//136
f 110//110 114//114 116//116
f 128//128 110//110 116//116
f 111//111 112//112 113//113
f 111//111 115//115 112//112
f 113//113 112//112 129//129
f 115//115 125//125 112//112
f 125//125 130//130 112//112
f 112//112 130//130 129//129
f 116//116 114//114 113//113
f 116//116 113//113 129//129
f 128//128 116//116 133//133
f 133//133 116//116 129//129
f 121//121 118//118 117//117
f 117//117 119//119 121//121
f 118//118 121//121 122//122
f 140//140 118//118 122//122
f 118//118 140//140 138//138
f 124//124 119//119 120//120
f 121//121 119//119 123//123
f 119//119 124//124 123//123
f 120//120 141//141 124//124
f 141//141 120//120 139//139
f 126//126 122//122 121//121
f 121//121 123//123 126//126
f 122//122 126//126 127//127
f 142//142 122//122 127//127
f 122//122 142//142 140//140
f 127//127 123//123 124//124
f 123//123 127//127 126//126
f 141//141 127//127 124//124
f 125//125 131//131 130//130
f 125//125 135//135 131//131
f 127//127 141//141 142//142
f 128//128 133//133 134//134
f 128//128 134//134 136//136
f 129//129 130//130 132//132
f 132//132 133//133 129//129
f 132//132 130//130 131//131
f 132//132 131//131 135//135
f 132//132 134//134 133//133
f 132//132 137//137 134//134
f 132//132 135//135 137//137
f 138//138 136//136 134//134
f 138//138 134//134 137//137
f 138//138 139//139 136//136
f 138//138 140//140 139//139
f 139//139 140//140 141//141
f 141//141 140//140 142//142
# 280 faces, 0 coords texture

# End of File
