####
#
# OBJ File Generated by Meshlab
#
####
# Object spcb2.obj
#
# Vertices: 141
# Faces: 278
#
####
vn -0.000000 3.114716 2.879793
v -0.000002 50.000000 0.009996 0.749020 0.749020 0.749020
vn -0.000000 3.114716 -2.879794
v -0.000002 49.999996 -49.990002 0.749020 0.749020 0.749020
vn 0.806148 3.008585 2.879793
v 12.940950 48.296291 0.009996 0.749020 0.749020 0.749020
vn 0.806148 3.008584 -2.879793
v 12.940950 48.296288 -49.990002 0.749020 0.749020 0.749020
vn -0.806148 3.008585 2.879792
v -12.940954 48.296291 0.009996 0.749020 0.749020 0.749020
vn -0.806148 3.008584 -2.879793
v -12.940954 48.296288 -49.990002 0.749020 0.749020 0.749020
vn 2.171923 1.451227 1.963492
v 24.999998 43.301270 0.009996 0.749020 0.749020 0.749020
vn 1.961983 2.057137 -2.122592
v 24.999998 43.301266 -49.990002 0.749020 0.749020 0.749020
vn -2.171915 1.451227 1.963493
v -25.000002 43.301270 0.009996 0.749020 0.749020 0.749020
vn -1.961983 2.057137 -2.122593
v -25.000002 43.301266 -49.990002 0.749020 0.749020 0.749020
vn 0.000000 -0.000001 -6.283185
v 24.999998 36.718643 -49.990002 0.749020 0.749020 0.749020
vn 1.472005 1.472005 -0.798064
v 35.355339 35.355335 -49.990002 0.749020 0.749020 0.749020
vn 0.000000 -0.000001 -6.283185
v 24.999998 35.355335 -49.990002 0.749020 0.749020 0.749020
vn 0.000000 -0.000001 -6.283185
v -20.412416 35.355335 -49.990002 0.749020 0.749020 0.749020
vn 0.000000 -0.000001 -6.283185
v -25.000002 35.355335 -49.990002 0.749020 0.749020 0.749020
vn -1.472005 1.472005 -0.798064
v -35.355339 35.355335 -49.990002 0.749020 0.749020 0.749020
vn 0.000000 -0.000001 -6.283185
v -25.000002 33.992027 -49.990002 0.749020 0.749020 0.749020
vn 0.000000 -0.000001 -6.283185
v -19.183176 33.226231 -49.990002 0.749020 0.749020 0.749020
vn 4.499717 1.769943 2.211878
v 24.999998 29.145985 -38.662956 0.749020 0.749020 0.749020
vn -4.499717 1.769943 2.211878
v -25.000002 29.145981 -38.662956 0.749020 0.749020 0.749020
vn 0.000000 -0.000001 -6.283185
v 24.999998 27.409407 -49.990002 0.749020 0.749020 0.749020
vn 1.802830 1.040864 -0.798065
v 43.301270 24.999998 -49.990002 0.749020 0.749020 0.749020
vn 4.923621 1.408260 2.168051
v 24.999998 24.999998 -35.345341 0.749020 0.749020 0.749020
vn 0.000000 -0.000001 -6.283185
v 24.999998 24.999998 -49.990002 0.749020 0.749020 0.749020
vn -0.000000 0.000001 6.283185
v -0.000001 25.000000 0.009998 0.749020 0.749020 0.749020
vn 0.000000 -0.000001 -6.283185
v -14.433758 24.999996 -49.990002 0.749020 0.749020 0.749020
vn -4.923621 1.408260 2.168050
v -25.000002 24.999994 -35.345341 0.749020 0.749020 0.749020
vn 0.000000 -0.000001 -6.283185
v -25.000002 24.999994 -49.990002 0.749020 0.749020 0.749020
vn -1.802830 1.040864 -0.798065
v -43.301270 24.999994 -49.990002 0.749020 0.749020 0.749020
vn -0.000000 0.000001 6.283185
v 6.470475 24.148146 0.009998 0.749020 0.749020 0.749020
vn -0.000000 0.000001 6.283184
v -6.470477 24.148146 0.009998 0.749020 0.749020 0.749020
vn 0.000000 -0.000001 -6.283185
v -25.000002 22.590586 -49.990002 0.749020 0.749020 0.749020
vn -0.000000 0.000001 6.283184
v 12.499999 21.650635 0.009998 0.749020 0.749020 0.749020
vn -0.000000 0.000001 6.283185
v -12.500001 21.650635 0.009998 0.749020 0.749020 0.749020
vn 0.000000 -0.000001 -6.283185
v -12.059049 20.886879 -49.989998 0.749020 0.749020 0.749020
vn 4.911535 1.358125 2.211878
v 25.000000 19.770136 -32.134125 0.749020 0.749020 0.749020
vn -4.911535 1.358125 2.211878
v -25.000000 19.770132 -32.134125 0.749020 0.749020 0.749020
vn -0.000000 0.000001 6.283186
v 17.677670 17.677670 0.009998 0.749020 0.749020 0.749020
vn -0.000000 0.000001 6.283185
v -10.206208 17.677670 0.009998 0.749020 0.749020 0.749020
vn -0.000000 0.000001 6.283185
v -17.677670 17.677670 0.009998 0.749020 0.749020 0.749020
vn -0.000000 0.000001 6.283185
v -9.591588 16.613117 0.009999 0.749020 0.749020 0.749020
vn 0.000000 -0.000001 -6.283185
v 25.000000 16.007965 -49.989998 0.749020 0.749020 0.749020
vn 5.234343 0.957424 2.133215
v 25.000000 14.433755 -28.857513 0.749020 0.749020 0.749020
vn -5.234343 0.957423 2.133215
v -25.000000 14.433753 -28.857513 0.749020 0.749020 0.749020
vn 2.010792 0.538790 -0.798068
v 48.296291 12.940949 -49.989998 0.749020 0.749020 0.749020
vn 0.000000 -0.000001 -6.283185
v 25.000000 12.940948 -49.989998 0.749020 0.749020 0.749020
vn 0.000000 -0.000001 -6.283185
v -7.471462 12.940948 -49.989998 0.749020 0.749020 0.749020
vn 0.000000 -0.000001 -6.283185
v -25.000000 12.940947 -49.989998 0.749020 0.749020 0.749020
vn -2.010795 0.538791 -0.798065
v -48.296291 12.940946 -49.989998 0.749020 0.749020 0.749020
vn 5.202734 0.853753 2.211878
v 25.000000 12.555426 -28.132505 0.749020 0.749020 0.749020
vn -5.202735 0.853753 2.211878
v -25.000000 12.555424 -28.132505 0.749020 0.749020 0.749020
vn -0.000000 0.000001 6.283185
v 21.650635 12.500001 0.009999 0.749020 0.749020 0.749020
vn -0.000000 0.000001 6.283185
v -7.216878 12.500000 0.009999 0.749020 0.749020 0.749020
vn -0.000000 0.000001 6.283185
v -21.650635 12.499999 0.009999 0.749020 0.749020 0.749020
vn -0.000000 0.000001 6.283185
v -6.029524 10.443441 0.009999 0.749020 0.749020 0.749020
vn 0.000000 -0.000001 -6.283185
v -25.000000 9.873932 -49.989998 0.749020 0.749020 0.749020
vn 0.000000 -0.000001 -6.283185
v -4.113118 7.124123 -49.989998 0.749020 0.749020 0.749020
vn 5.422537 0.478781 2.097767
v 25.000000 6.698729 -25.871902 0.749020 0.749020 0.749020
vn -5.422539 0.478779 2.097766
v -25.000000 6.698727 -25.871902 0.749020 0.749020 0.749020
vn -0.000000 0.000001 6.283185
v 24.148146 6.470477 0.009999 0.749020 0.749020 0.749020
vn -0.000000 0.000001 6.283185
v -3.735731 6.470476 0.009999 0.749020 0.749020 0.749020
vn -0.000000 0.000001 6.283185
v -24.148146 6.470475 0.009999 0.749020 0.749020 0.749020
vn 5.353471 0.291201 2.211877
v 25.000000 6.257264 -25.813782 0.749020 0.749020 0.749020
vn -0.000000 0.000001 6.283185
v -2.056558 3.562063 0.010000 0.749020 0.749020 0.749020
vn 0.000000 -0.000001 -6.283185
v 25.000000 3.291309 -49.989998 0.749020 0.749020 0.749020
vn 2.081728 0.000000 -0.798065
v 50.000000 -0.000002 -49.989998 0.749020 0.749020 0.749020
vn 3.141594 0.000000 3.141593
v 25.000000 0.000001 0.010000 0.749020 0.749020 0.749020
vn 5.485121 0.000000 2.081728
v 25.000000 -0.000001 -24.989998 0.749020 0.749020 0.749020
vn 0.000000 -0.000001 -6.283185
v 25.000000 -0.000003 -49.989998 0.749020 0.749020 0.749020
vn -0.000000 0.000001 6.283185
v 0.000000 0.000000 0.010000 0.749020 0.749020 0.749020
vn 0.000000 -0.000001 -6.283185
v 0.000000 -0.000004 -49.989998 0.749020 0.749020 0.749020
vn -3.141594 -0.000000 3.141593
v -25.000000 -0.000001 0.010000 0.749020 0.749020 0.749020
vn -5.485121 -0.000000 2.081728
v -25.000000 -0.000003 -24.989998 0.749020 0.749020 0.749020
vn 0.000000 -0.000001 -6.283185
v -25.000000 -0.000005 -49.989998 0.749020 0.749020 0.749020
vn -2.081728 -0.000000 -0.798065
v -50.000000 -0.000006 -49.989998 0.749020 0.749020 0.749020
vn 0.000000 -0.000001 -6.283185
v -25.000000 -3.291318 -49.989998 0.749020 0.749020 0.749020
vn -0.000000 0.000001 6.283185
v 2.056558 -3.562063 0.010000 0.749020 0.749020 0.749020
vn -5.353471 -0.291200 2.211877
v -25.000000 -6.257268 -25.813782 0.749020 0.749020 0.749020
vn -0.000000 0.000001 6.283185
v 24.148146 -6.470475 0.010001 0.749020 0.749020 0.749020
vn -0.000000 0.000001 6.283185
v 3.735731 -6.470476 0.010001 0.749020 0.749020 0.749020
vn -0.000000 0.000001 6.283185
v -24.148146 -6.470477 0.010001 0.749020 0.749020 0.749020
vn 5.422539 -0.478778 2.097766
v 25.000000 -6.698731 -25.871902 0.749020 0.749020 0.749020
vn -5.422537 -0.478781 2.097767
v -25.000000 -6.698733 -25.871902 0.749020 0.749020 0.749020
vn 0.000000 -0.000001 -6.283185
v 4.113118 -7.124131 -49.989998 0.749020 0.749020 0.749020
vn 0.000000 -0.000001 -6.283185
v 25.000000 -9.873941 -49.989998 0.749020 0.749020 0.749020
vn -0.000000 0.000001 6.283185
v 6.029524 -10.443441 0.010001 0.749020 0.749020 0.749020
vn -0.000000 0.000001 6.283185
v 21.650635 -12.499999 0.010001 0.749020 0.749020 0.749020
vn -0.000000 0.000001 6.283185
v 7.216878 -12.500000 0.010001 0.749020 0.749020 0.749020
vn -0.000000 0.000001 6.283185
v -21.650635 -12.500001 0.010001 0.749020 0.749020 0.749020
vn 5.202734 -0.853752 2.211878
v 25.000000 -12.555429 -28.132502 0.749020 0.749020 0.749020
vn -5.202735 -0.853753 2.211878
v -25.000000 -12.555431 -28.132502 0.749020 0.749020 0.749020
vn 2.010795 -0.538791 -0.798065
v 48.296291 -12.940955 -49.989998 0.749020 0.749020 0.749020
vn 0.000000 -0.000001 -6.283185
v 25.000000 -12.940956 -49.989998 0.749020 0.749020 0.749020
vn 0.000000 -0.000001 -6.283185
v 7.471462 -12.940957 -49.989998 0.749020 0.749020 0.749020
vn 0.000000 -0.000001 -6.283185
v -25.000000 -12.940958 -49.989998 0.749020 0.749020 0.749020
vn -2.010792 -0.538791 -0.798068
v -48.296291 -12.940959 -49.989998 0.749020 0.749020 0.749020
vn 5.234343 -0.957423 2.133215
v 25.000000 -14.433759 -28.857510 0.749020 0.749020 0.749020
vn -5.234343 -0.957423 2.133215
v -25.000000 -14.433761 -28.857510 0.749020 0.749020 0.749020
vn 0.000000 -0.000001 -6.283185
v -25.000000 -16.007973 -49.989998 0.749020 0.749020 0.749020
vn -0.000000 0.000001 6.283185
v 9.591588 -16.613117 0.010001 0.749020 0.749020 0.749020
vn -0.000000 0.000001 6.283185
v 17.677670 -17.677670 0.010002 0.749020 0.749020 0.749020
vn -0.000000 0.000001 6.283185
v 10.206208 -17.677670 0.010002 0.749020 0.749020 0.749020
vn -0.000000 0.000001 6.283185
v -17.677670 -17.677670 0.010002 0.749020 0.749020 0.749020
vn 4.911535 -1.358124 2.211878
v 25.000000 -19.770136 -32.134125 0.749020 0.749020 0.749020
vn -4.911535 -1.358124 2.211878
v -25.000000 -19.770140 -32.134125 0.749020 0.749020 0.749020
vn 0.000000 -0.000001 -6.283185
v 12.059049 -20.886887 -49.989998 0.749020 0.749020 0.749020
vn -0.000000 0.000001 6.283185
v 12.500001 -21.650635 0.010002 0.749020 0.749020 0.749020
vn -0.000000 0.000001 6.283184
v -12.499999 -21.650635 0.010002 0.749020 0.749020 0.749020
vn 0.000000 -0.000001 -6.283185
v 25.000002 -22.590593 -49.989994 0.749020 0.749020 0.749020
vn -0.000000 0.000001 6.283185
v 6.470477 -24.148146 0.010002 0.749020 0.749020 0.749020
vn -0.000000 0.000001 6.283185
v -6.470475 -24.148146 0.010002 0.749020 0.749020 0.749020
vn 1.802830 -1.040864 -0.798065
v 43.301270 -25.000002 -49.989994 0.749020 0.749020 0.749020
vn 4.923621 -1.408260 2.168051
v 25.000002 -25.000002 -35.345333 0.749020 0.749020 0.749020
vn 0.000000 -0.000001 -6.283185
v 25.000002 -25.000002 -49.989994 0.749020 0.749020 0.749020
vn 0.000000 -0.000001 -6.283185
v 14.433758 -25.000004 -49.989994 0.749020 0.749020 0.749020
vn -0.000000 0.000001 6.283185
v 0.000001 -25.000000 0.010002 0.749020 0.749020 0.749020
vn -4.923621 -1.408260 2.168051
v -24.999998 -25.000006 -35.345333 0.749020 0.749020 0.749020
vn 0.000000 -0.000001 -6.283185
v -24.999998 -25.000006 -49.989994 0.749020 0.749020 0.749020
vn -1.802830 -1.040864 -0.798065
v -43.301270 -25.000006 -49.989994 0.749020 0.749020 0.749020
vn 0.000000 -0.000001 -6.283185
v -24.999998 -27.409414 -49.989994 0.749020 0.749020 0.749020
vn 4.499717 -1.769943 2.211878
v 25.000002 -29.145988 -38.662949 0.749020 0.749020 0.749020
vn -4.499717 -1.769943 2.211878
v -24.999998 -29.145992 -38.662949 0.749020 0.749020 0.749020
vn 0.000000 -0.000001 -6.283185
v 19.183176 -33.226238 -49.989994 0.749020 0.749020 0.749020
vn 0.000000 -0.000001 -6.283185
v 25.000002 -33.992035 -49.989994 0.749020 0.749020 0.749020
vn 1.472005 -1.472005 -0.798064
v 35.355339 -35.355343 -49.989994 0.749020 0.749020 0.749020
vn 0.000000 -0.000001 -6.283185
v 25.000002 -35.355343 -49.989994 0.749020 0.749020 0.749020
vn 0.000000 -0.000001 -6.283185
v 20.412416 -35.355343 -49.989994 0.749020 0.749020 0.749020
vn 0.000000 -0.000001 -6.283185
v -24.999998 -35.355343 -49.989994 0.749020 0.749020 0.749020
vn -1.472005 -1.472005 -0.798064
v -35.355339 -35.355343 -49.989994 0.749020 0.749020 0.749020
vn 0.000000 -0.000001 -6.283185
v -24.999998 -36.718651 -49.989994 0.749020 0.749020 0.749020
vn 2.171915 -1.451226 1.963494
v 25.000002 -43.301270 0.010004 0.749020 0.749020 0.749020
vn 1.961983 -2.057137 -2.122593
v 25.000002 -43.301273 -49.989994 0.749020 0.749020 0.749020
vn -2.171923 -1.451226 1.963492
v -24.999998 -43.301270 0.010004 0.749020 0.749020 0.749020
vn -1.961983 -2.057138 -2.122593
v -24.999998 -43.301273 -49.989994 0.749020 0.749020 0.749020
vn 0.000000 -0.000001 -6.283185
v 0.000002 -46.592587 -49.989994 0.749020 0.749020 0.749020
vn 0.806148 -3.008584 2.879793
v 12.940954 -48.296291 0.010004 0.749020 0.749020 0.749020
vn 0.806148 -3.008585 -2.879792
v 12.940954 -48.296295 -49.989994 0.749020 0.749020 0.749020
vn -0.806148 -3.008584 2.879793
v -12.940950 -48.296291 0.010004 0.749020 0.749020 0.749020
vn -0.806148 -3.008585 -2.879792
v -12.940950 -48.296295 -49.989994 0.749020 0.749020 0.749020
vn 0.000000 -3.114716 2.879794
v 0.000002 -50.000000 0.010004 0.749020 0.749020 0.749020
vn 0.000000 -3.114716 -2.879793
v 0.000002 -50.000004 -49.989994 0.749020 0.749020 0.749020
# 141 vertices, 0 vertices normals

f 3//3 2//2 1//1
f 6//6 1//1 2//2
f 5//5 3//3 1//1
f 1//1 6//6 5//5
f 2//2 3//3 4//4
f 4//4 6//6 2//2
f 7//7 4//4 3//3
f 3//3 5//5 7//7
f 6//6 4//4 8//8
f 4//4 7//7 8//8
f 10//10 5//5 6//6
f 7//7 5//5 9//9
f 5//5 10//10 9//9
f 6//6 8//8 10//10
f 19//19 8//8 7//7
f 7//7 9//9 25//25
f 7//7 23//23 19//19
f 7//7 36//36 23//23
f 30//30 7//7 25//25
f 30//30 33//33 7//7
f 33//33 38//38 7//7
f 7//7 43//43 36//36
f 38//38 52//52 7//7
f 7//7 50//50 43//43
f 7//7 58//58 50//50
f 52//52 60//60 7//7
f 7//7 63//63 58//58
f 60//60 67//67 7//7
f 7//7 68//68 63//63
f 68//68 7//7 67//67
f 10//10 8//8 11//11
f 11//11 8//8 12//12
f 19//19 12//12 8//8
f 10//10 20//20 9//9
f 9//9 20//20 27//27
f 25//25 9//9 31//31
f 9//9 27//27 37//37
f 9//9 34//34 31//31
f 34//34 9//9 40//40
f 9//9 37//37 72//72
f 40//40 9//9 54//54
f 54//54 9//9 62//62
f 62//62 9//9 72//72
f 14//14 10//10 11//11
f 15//15 10//10 14//14
f 15//15 16//16 10//10
f 16//16 20//20 10//10
f 12//12 13//13 11//11
f 13//13 14//14 11//11
f 21//21 13//13 12//12
f 12//12 19//19 23//23
f 22//22 21//21 12//12
f 36//36 22//22 12//12
f 23//23 36//36 12//12
f 13//13 18//18 14//14
f 21//21 18//18 13//13
f 17//17 15//15 14//14
f 18//18 17//17 14//14
f 17//17 16//16 15//15
f 17//17 29//29 16//16
f 20//20 16//16 27//27
f 16//16 37//37 27//27
f 29//29 37//37 16//16
f 28//28 17//17 18//18
f 17//17 28//28 29//29
f 26//26 18//18 21//21
f 18//18 26//26 28//28
f 22//22 24//24 21//21
f 24//24 26//26 21//21
f 22//22 42//42 24//24
f 22//22 36//36 43//43
f 22//22 45//45 42//42
f 43//43 50//50 22//22
f 50//50 45//45 22//22
f 35//35 26//26 24//24
f 42//42 35//35 24//24
f 31//31 30//30 25//25
f 26//26 32//32 28//28
f 32//32 26//26 35//35
f 32//32 29//29 28//28
f 32//32 49//49 29//29
f 37//37 29//29 44//44
f 29//29 51//51 44//44
f 49//49 51//51 29//29
f 30//30 31//31 33//33
f 33//33 31//31 34//34
f 48//48 32//32 35//35
f 32//32 48//48 49//49
f 33//33 34//34 38//38
f 34//34 39//39 38//38
f 34//34 40//40 39//39
f 47//47 35//35 42//42
f 35//35 47//47 48//48
f 37//37 44//44 72//72
f 39//39 41//41 38//38
f 38//38 41//41 52//52
f 39//39 40//40 41//41
f 41//41 40//40 54//54
f 41//41 53//53 52//52
f 53//53 41//41 54//54
f 42//42 45//45 46//46
f 46//46 47//47 42//42
f 44//44 51//51 72//72
f 46//46 45//45 65//65
f 45//45 50//50 58//58
f 58//58 63//63 45//45
f 63//63 66//66 45//45
f 65//65 45//45 66//66
f 57//57 47//47 46//46
f 65//65 57//57 46//46
f 47//47 56//56 48//48
f 56//56 47//47 57//57
f 56//56 49//49 48//48
f 51//51 49//49 59//59
f 56//56 75//75 49//49
f 49//49 73//73 59//59
f 73//73 49//49 75//75
f 51//51 59//59 72//72
f 53//53 55//55 52//52
f 52//52 55//55 60//60
f 55//55 53//53 54//54
f 62//62 55//55 54//54
f 55//55 61//61 60//60
f 62//62 61//61 55//55
f 74//74 56//56 57//57
f 56//56 74//74 75//75
f 71//71 57//57 65//65
f 71//71 74//74 57//57
f 59//59 73//73 72//72
f 61//61 64//64 60//60
f 60//60 64//64 67//67
f 62//62 64//64 61//61
f 62//62 72//72 64//64
f 66//66 63//63 68//68
f 64//64 70//70 67//67
f 64//64 72//72 70//70
f 69//69 65//65 66//66
f 69//69 71//71 65//65
f 68//68 92//92 66//66
f 85//85 69//69 66//66
f 92//92 85//85 66//66
f 82//82 68//68 67//67
f 70//70 77//77 67//67
f 77//77 79//79 67//67
f 79//79 131//131 67//67
f 90//90 82//82 67//67
f 97//97 90//90 67//67
f 104//104 97//97 67//67
f 131//131 104//104 67//67
f 92//92 68//68 82//82
f 84//84 71//71 69//69
f 85//85 84//84 69//69
f 70//70 72//72 77//77
f 71//71 76//76 74//74
f 71//71 84//84 76//76
f 73//73 133//133 72//72
f 77//77 72//72 81//81
f 81//81 72//72 133//133
f 75//75 78//78 73//73
f 133//133 73//73 78//78
f 76//76 75//75 74//74
f 76//76 96//96 75//75
f 78//78 75//75 96//96
f 95//95 76//76 84//84
f 76//76 95//95 96//96
f 77//77 80//80 79//79
f 80//80 77//77 81//81
f 83//83 78//78 96//96
f 133//133 78//78 83//83
f 80//80 86//86 79//79
f 86//86 87//87 79//79
f 87//87 131//131 79//79
f 86//86 80//80 81//81
f 89//89 86//86 81//81
f 89//89 81//81 133//133
f 90//90 92//92 82//82
f 96//96 91//91 83//83
f 133//133 83//83 91//91
f 94//94 84//84 85//85
f 84//84 94//94 95//95
f 92//92 93//93 85//85
f 93//93 94//94 85//85
f 86//86 88//88 87//87
f 88//88 86//86 89//89
f 88//88 100//100 87//87
f 100//100 101//101 87//87
f 101//101 131//131 87//87
f 88//88 89//89 100//100
f 89//89 103//103 100//100
f 89//89 133//133 103//103
f 92//92 90//90 112//112
f 112//112 90//90 97//97
f 91//91 96//96 119//119
f 98//98 91//91 119//119
f 133//133 91//91 98//98
f 92//92 109//109 93//93
f 92//92 112//112 109//109
f 106//106 94//94 93//93
f 109//109 106//106 93//93
f 94//94 99//99 95//95
f 99//99 94//94 106//106
f 99//99 96//96 95//95
f 99//99 119//119 96//96
f 104//104 112//112 97//97
f 119//119 105//105 98//98
f 133//133 98//98 105//105
f 118//118 99//99 106//106
f 99//99 118//118 119//119
f 100//100 102//102 101//101
f 103//103 102//102 100//100
f 102//102 107//107 101//101
f 107//107 131//131 101//101
f 107//107 102//102 103//103
f 107//107 103//103 108//108
f 103//103 133//133 108//108
f 112//112 104//104 125//125
f 125//125 104//104 113//113
f 113//113 104//104 131//131
f 117//117 105//105 129//129
f 133//133 105//105 117//117
f 105//105 119//119 129//129
f 115//115 106//106 109//109
f 115//115 118//118 106//106
f 107//107 108//108 110//110
f 107//107 110//110 131//131
f 110//110 108//108 111//111
f 111//111 108//108 133//133
f 112//112 114//114 109//109
f 114//114 115//115 109//109
f 110//110 111//111 116//116
f 110//110 116//116 131//131
f 116//116 111//111 133//133
f 124//124 114//114 112//112
f 124//124 112//112 125//125
f 121//121 125//125 113//113
f 121//121 113//113 131//131
f 123//123 115//115 114//114
f 124//124 123//123 114//114
f 115//115 120//120 118//118
f 115//115 123//123 120//120
f 131//131 116//116 133//133
f 129//129 122//122 117//117
f 122//122 133//133 117//117
f 120//120 119//119 118//118
f 120//120 129//129 119//119
f 128//128 120//120 123//123
f 120//120 128//128 129//129
f 125//125 121//121 132//132
f 132//132 121//121 131//131
f 122//122 129//129 134//134
f 134//134 133//133 122//122
f 127//127 123//123 124//124
f 127//127 128//128 123//123
f 124//124 125//125 126//126
f 126//126 127//127 124//124
f 125//125 132//132 126//126
f 132//132 127//127 126//126
f 128//128 127//127 130//130
f 127//127 132//132 130//130
f 128//128 130//130 129//129
f 130//130 134//134 129//129
f 130//130 132//132 134//134
f 136//136 132//132 131//131
f 131//131 133//133 136//136
f 134//134 132//132 135//135
f 135//135 132//132 137//137
f 132//132 136//136 137//137
f 139//139 133//133 134//134
f 136//136 133//133 138//138
f 133//133 139//139 138//138
f 134//134 135//135 139//139
f 135//135 137//137 139//139
f 140//140 137//137 136//136
f 136//136 138//138 140//140
f 139//139 137//137 141//141
f 137//137 140//140 141//141
f 141//141 138//138 139//139
f 138//138 141//141 140//140
# 278 faces, 0 coords texture

# End of File
